#!OML:ASF E:/inclinewalkrobotboard/Project1/Captureday1/Session1/subject1.ASF
:FULLY-SPECIFIED
:DEGREES
288
root 0 0 0 -2.296411283535402 -0.34769286211552264 0.8265503289719782
lowerback 10.181556387361148 -0.8123884039882989 -2.9312772936965183
upperback 0.33235261326413806 -1.361311343240386 1.3208254728798536
thorax -5.302451399544165 -0.5951738248407722 3.215507726064427
lowerneck -15.14633427480787 -2.5478221754856345 -1.7270112741946069
upperneck 17.872089734378054 -3.1877547263742665 0.8565656794528886
head 8.221433476347228 -1.5703807226719502 0.21109227790241833
rclavicle -1.839792917751576E-16 -9.984419290623515E-17
rhumerus -19.8698355150436 -7.523491573530571 -67.59293364339345
rradius 59.93110364109531
rwrist -7.8555007146718125
rhand -13.436109564276606 -8.317722105462787
rfingers 7.125019999999867
rthumb 12.696127155674688 -37.566351118506006
lclavicle -7.302097983890183E-16 -3.6249854538812887E-16
lhumerus -39.18858376578384 0.1724985160033506 83.25074442348168
lradius 37.8129421544108
lwrist 2.8929289564383747
lhand -19.8384121064704 2.076172901581062
lfingers 7.125019999999885
lthumb 6.405612694476115 31.60166454585511
rfemur -11.061433062465138 2.0018414429813225 15.216319361900496
rtibia 31.824145882681982
rfoot -0.8014067103555538 -3.6835803255833692
rtoes 4.326625875546004
lfemur -2.425885461765108 -3.2555061339736646 -19.618574555368994
ltibia 25.265334171598116
lfoot -14.503487439093057 1.89549244959428
ltoes -18.65609889600532
289
root 0 0 0 -2.317268039151374 -0.43105216547898717 0.7085278122888936
lowerback 10.189926186153201 -0.7769092421804773 -2.7834645643058122
upperback 0.34147937494490593 -1.296840566222302 1.3425389828629946
thorax -5.295248140726201 -0.5653854864711617 3.146633622150989
lowerneck -15.239859467290078 -2.56204267530335 -1.7437523792976664
upperneck 17.999592168577237 -3.201058507048844 0.832116133495838
head 8.265562368793011 -1.5785140369099047 0.2010445411355744
rclavicle -1.8877536466384544E-16 -9.874083499891013E-17
rhumerus -19.91732013421112 -7.579357543275444 -67.64676599513083
rradius 59.75887407985362
rwrist -7.796632598681147
rhand -13.45940179892419 -8.153818973377653
rfingers 7.125019999999868
rthumb 12.673364911176597 -37.404753010521084
lclavicle -7.255132875776431E-16 -3.5828940268078223E-16
lhumerus -39.01859230860334 0.1646935893857102 83.23575556753089
lradius 37.575978897926205
lwrist 2.9663568181695537
lhand -20.017710741824704 2.6232696631682693
lfingers 7.125019999999889
lthumb 6.235763435861916 32.15887791132783
rfemur -11.10203682424984 2.3071221381512004 16.1835471831718
rtibia 31.996665545246657
rfoot -1.6219533481184467 -3.935768732007741
rtoes 4.192669809582177
lfemur -4.766046064153659 -2.8426997292448224 -18.6551482871031
ltibia 28.20700799814352
lfoot -12.91647437650579 1.1626943130652716
ltoes -17.799344714238554
290
root 0 0 0 -2.3271571384011382 -0.5956220554360545 0.45137406819955084
lowerback 10.19555458522132 -0.6882033754394334 -2.4945180912582594
upperback 0.34652534533405327 -1.1443743944591014 1.3661492309735868
thorax -5.290852914334209 -0.49585768378660766 2.988574707253365
lowerneck -15.316753748418275 -2.5869324466187558 -1.7436640871576843
upperneck 18.114540777874605 -3.2343563405822966 0.8148086622565507
head 8.301716406817905 -1.5946621241007177 0.18868784317764925
rclavicle -1.9657368109103337E-16 -9.873746520750348E-17
rhumerus -20.00485630629119 -7.679009647874213 -67.74688316569943
rradius 59.446293674850196
rwrist -7.688589576875837
rhand -13.501844403545444 -7.85806171606856
rfingers 7.12501999999987
rthumb 12.632210972590105 -37.11394160556011
lclavicle -7.188629727341907E-16 -3.5577798450723577E-16
lhumerus -38.8401089718701 0.1555861853017398 83.22144004073711
lradius 37.32832730380678
lwrist 3.043493529028744
lhand -20.2051594781371 3.194060912461886
lfingers 7.125019999999893
lthumb 6.058636090047709 32.74119428115739
rfemur -10.733050595127636 2.7442022214492114 17.327253617485916
rtibia 31.39270380870024
rfoot -2.8906410873749455 -4.195335796192496
rtoes 3.819274190162362
lfemur -8.305767957464807 -2.253662307070017 -17.194761156853687
ltibia 32.411774700961914
lfoot -10.619845040576543 0.15765998219666422
ltoes -16.571147989724544
291
root 0 0 0 -2.314279822490201 -0.9828778481756113 -0.1762372886422532
lowerback 10.200122863784589 -0.45745235294411235 -1.8187675975971258
upperback 0.342635953331523 -0.7567827891273748 1.4002732903812305
thorax -5.294446407933641 -0.3198003231770984 2.5911235517086837
lowerneck -15.381577822374503 -2.6445137925187496 -1.7086359418702566
upperneck 18.22403551368202 -3.3246042509546943 0.8117209988316219
head 8.332603696587318 -1.634017918765987 0.1690245615001717
rclavicle -2.024981477211025E-16 -9.858257815238524E-17
rhumerus -20.070418851211492 -7.753800108915613 -67.82439770253819
rradius 59.2063815278513
rwrist -7.6069652312074
rhand -13.535220810395396 -7.628949676368983
rfingers 7.125019999999871
rthumb 12.600222869472885 -36.889071934593716
lclavicle -7.122956497848066E-16 -3.5536631149250054E-16
lhumerus -38.73843173992415 0.1483357249394261 83.21533995559395
lradius 37.18964189418159
lwrist 3.088550077302389
lhand -20.311500794637922 3.5159251937723077
lfingers 7.125019999999894
lthumb 5.958998655125934 33.07000182039303
rfemur -9.66282113446384 3.3131459959868907 18.576663418548513
rtibia 29.739782975029883
rfoot -4.595960297826561 -4.376019878171704
rtoes 3.200781998460104
lfemur -12.9880558554474 -1.5008694582253201 -15.344764081940758
ltibia 37.72607742121738
lfoot -7.605442511199199 -1.1604785958336317
ltoes -14.662443666805885
292
root 0 0 0 -2.2243448097103657 -2.0448965872948217 -1.9035965099631635
lowerback 10.203005865423954 0.21121271845835 0.01958488697293559
upperback 0.3011993870925101 0.3487956382471604 1.4604784802426236
thorax -5.332809557600813 0.1828692018839918 1.4632382218646638
lowerneck -15.417675919125227 -2.8112685189733297 -1.575236733676457
upperneck 18.26847569303108 -3.6053798163049904 0.8705879608491427
head 8.346722682294788 -1.7498971277423594 0.1331790181542039
rclavicle -1.9899897803183263E-16 -9.430696104683418E-17
rhumerus -19.9934630495148 -7.672931167553003 -67.74722775627845
rradius 59.445963524951125
rwrist -7.697423722991978
rhand -13.505496173211853 -7.846973745566176
rfingers 7.12501999999987
rthumb 12.630035059287325 -37.103753628570054
lclavicle -7.135594889998732E-16 -3.536516339243567E-16
lhumerus -38.822098201809645 0.1516364446498222 83.22482578949617
lradius 37.302416588965976
lwrist 3.0548887009819694
lhand -20.226041916312624 3.2540628028702816
lfingers 7.125019999999893
lthumb 6.040820779079151 32.801959580691545
rfemur -8.031855281832737 3.860785982832171 19.55299696491307
rtibia 27.31971908643287
rfoot -6.285351914423347 -4.391431850446666
rtoes 2.4837399646356526
lfemur -16.3864545645488 -1.0087780045868313 -14.022191928218584
ltibia 41.1888075632621
lfoot -5.603475820856634 -1.9798231029311362
ltoes -13.30428660563594
293
root 0 0 0 -1.9875919123314794 -4.2848186800146735 -5.5016509666172935
lowerback 10.18804210551385 1.6655975844865196 3.8539151093497757
upperback 0.17496056425281875 2.7297019915290264 1.5383163993971811
thorax -5.438444044002866 1.2684043658401682 -0.9521061049052368
lowerneck -15.385335905491303 -3.184532535522308 -1.2815570384714876
upperneck 18.067737543820922 -4.253069235347831 1.08915741645519
head 8.31285059746691 -2.0114012490840776 0.08437033974554037
rclavicle -1.8305833822426253E-16 -8.395393659771301E-17
rhumerus -19.703495146480492 -7.362745974662639 -67.44104844469348
rradius 60.398802818908976
rwrist -8.043708378514584
rhand -13.380565160166574 -8.73358728745076
rfingers 7.125019999999864
rthumb 12.752057929848952 -37.975659609406094
lclavicle -7.420261742246588E-16 -3.5735576833468556E-16
lhumerus -39.110193137847844 0.17538556699998095 83.24703635349758
lradius 37.67470724174113
lwrist 2.9328174042911836
lhand -19.935887739489175 2.371012742740712
lfingers 7.125019999999887
lthumb 6.314587244476014 31.90187850115968
rfemur -6.584986910615083 4.233502024479682 20.067810427130407
rtibia 25.131006211746488
rfoot -7.481883474489426 -4.321532062537456
rtoes 1.898409116616768
lfemur -17.61378521341284 -0.9504561773113842 -13.27936566334493
ltibia 41.82869176811777
lfoot -5.462976355516915 -1.7543809213040875
ltoes -14.10880025004511
294
root 0 0 0 -1.8425419962519842 -5.26183445703102 -7.110565101948465
lowerback 10.147884840950198 2.3377163231467026 5.511259639136246
upperback 0.10323424220085847 3.828447841286095 1.5227773259811468
thorax -5.494370764961629 1.7672200804294627 -2.0490007488464315
lowerneck -15.149246781651337 -3.3359369208720198 -1.0873109246932438
upperneck 17.80873004082648 -4.541021781367726 1.2367279852258655
head 8.188072192491939 -2.1263648017907744 0.07520321163479138
rclavicle -1.6439224567207363E-16 -6.964615269055629E-17
rhumerus -19.36661508525262 -7.004034993662826 -67.08961434968778
rradius 61.498656012269
rwrist -8.446463473691246
rhand -13.234628090298884 -9.764742593766506
rfingers 7.125019999999859
rthumb 12.892756254277714 -38.98841150493917
lclavicle -7.935134429271548E-16 -3.6470048430967285E-16
lhumerus -39.43323590650294 0.21933421140226897 83.2694767619155
lradius 38.05547713368534
lwrist 2.7933503400877964
lhand -19.622825742314294 1.4232856271597285
lfingers 7.125019999999882
lthumb 6.60942015610984 30.933918446619003
rfemur -5.572909570193891 4.415550762221062 20.237592376991614
rtibia 23.740111425368276
rfoot -8.076602001258497 -4.2071257781410925
rtoes 1.5681653123126673
lfemur -17.755267196816934 -1.109720185019663 -12.810561572341234
ltibia 41.07504117851363
lfoot -6.22208509113287 -0.9976881808642988
ltoes -16.017967788806132
